# xmcd
#
# Track frame offsets:
#	150
#	44223
#	86294
#	97459
#	139691
#	165556
#	204935
#	230051
#	270416
#	319393
#
# Disc length: 4549 seconds
#
# Revision: 0
# Processed by: cddbd v1.5.2PL0 Copyright (c) Steve Scherf et al.
# Submitted via: audiograbber 1.83.01
#
DISCID=8f11c30a
DTITLE=Grateful Dead - 92-06-08 Richfield Coliseum, Richfield OH
DYEAR=1900
DGENRE=
TTITLE0=Crazy Fingers
TTITLE1=Corrina
TTITLE2=Dear Prudence Jam
TTITLE3=Drums
TTITLE4=Space
TTITLE5=Dark Star
TTITLE6=The Last Time
TTITLE7=Stella Blue
TTITLE8=Sugar Magnolia
TTITLE9=US Blues
EXTD=
EXTT0=
EXTT1=
EXTT2=
EXTT3=
EXTT4=
EXTT5=
EXTT6=
EXTT7=
EXTT8=
EXTT9=
PLAYORDER=
